# xmcd
#
# Track frame offsets:
#	150
#	23845
#	45410
#	64925
#	88570
#	105955
#	128538
#	147018
#	175913
#	199058
#
# Disc length: 2985 seconds
#
# Revision: 1
# Processed by: cddbd v1.5.2PL0 Copyright (c) Steve Scherf et al.
# Submitted via: audiograbber 1.83.01
#
DISCID=780ba70a
DTITLE=Julie - Noi Long
DYEAR=1992
DGENRE=Viet
TTITLE0=Tinh Nghe Si
TTITLE1=Chieu Nay Vang Anh
TTITLE2=Ghen
TTITLE3=Tren Ngon Tinh Sau
TTITLE4=Loi Hen Xua
TTITLE5=Noi Long
TTITLE6=Ta Hon Nhau Trong Cong vien
TTITLE7=Mat Buon
TTITLE8=Giot Nang Hong
TTITLE9=Ben Kia Song
EXTD=
EXTT0=
EXTT1=
EXTT2=
EXTT3=
EXTT4=
EXTT5=
EXTT6=
EXTT7=
EXTT8=
EXTT9=
PLAYORDER=
